HIERARCHY
ROOT Hips
{
	OFFSET 0.000000 121.760803 0.000000
	CHANNELS 6 Xposition Yposition Zposition Xrotation Yrotation Zrotation 
	JOINT Spine
	{
		OFFSET 0.072000 7.257294 -0.789700
		CHANNELS 3 Xrotation Yrotation Zrotation
		JOINT Spine1
		{
			OFFSET 0.000000 12.508769 -0.658067
			CHANNELS 3 Xrotation Yrotation Zrotation
			JOINT Spine1_split
			{
				OFFSET 0.000000 12.508769 -0.658067
				CHANNELS 3 Xrotation Yrotation Zrotation
				JOINT Spine2
				{
					OFFSET 0.000000 12.508769 -0.658067
					CHANNELS 3 Xrotation Yrotation Zrotation
					JOINT Neck
					{
						OFFSET 0.000000 14.033295 7.520400
						CHANNELS 3 Xrotation Yrotation Zrotation
						JOINT Head
						{
							OFFSET 0.000000 8.198502 5.703100
							CHANNELS 3 Xrotation Yrotation Zrotation
							JOINT HeadTop_End
							{
								OFFSET 0.000000 17.760803 13.332701
								CHANNELS 3 Xrotation Yrotation Zrotation
								End Site
								{
									OFFSET 0.000000 0.000000 0.000000
								}
							}
						}
					}
					JOINT LeftShoulder
					{
						OFFSET 6.292450 5.785301 -0.669000
						CHANNELS 3 Xrotation Yrotation Zrotation
						JOINT LeftShoulder_split
						{
							OFFSET 6.292450 5.785301 -0.669000
							CHANNELS 3 Xrotation Yrotation Zrotation
							JOINT LeftArm
							{
								OFFSET 13.907140 -6.093903 1.965100
								CHANNELS 3 Xrotation Yrotation Zrotation
								JOINT LeftForeArm
								{
									OFFSET 34.140198 0.000000 0.000000
									CHANNELS 3 Xrotation Yrotation Zrotation
									JOINT LeftHand
									{
										OFFSET 40.960209 0.000000 0.000000
										CHANNELS 3 Xrotation Yrotation Zrotation
										JOINT LeftHandThumb1
										{
											OFFSET 10.006996 -7.170425 9.573125
											CHANNELS 3 Xrotation Yrotation Zrotation
											JOINT LeftHandThumb2
											{
												OFFSET 1.835007 -1.059448 1.059443
												CHANNELS 3 Xrotation Yrotation Zrotation
												JOINT LeftHandThumb3
												{
													OFFSET 2.112267 -1.219513 1.219518
													CHANNELS 3 Xrotation Yrotation Zrotation
													JOINT LeftHandThumb4
													{
														OFFSET 4.843811 -2.796570 2.796576
														CHANNELS 3 Xrotation Yrotation Zrotation
														End Site
														{
															OFFSET 0.000000 0.000000 0.000000
														}
													}
												}
											}
										}
										JOINT LeftHandIndex1
										{
											OFFSET 18.389847 -0.922348 4.596882
											CHANNELS 3 Xrotation Yrotation Zrotation
											JOINT LeftHandIndex2
											{
												OFFSET 4.711273 0.000000 0.000000
												CHANNELS 3 Xrotation Yrotation Zrotation
												JOINT LeftHandIndex3
												{
													OFFSET 2.886131 0.000000 0.000000
													CHANNELS 3 Xrotation Yrotation Zrotation
													JOINT LeftHandIndex4
													{
														OFFSET 6.145912 0.000000 0.000000
														CHANNELS 3 Xrotation Yrotation Zrotation
														End Site
														{
															OFFSET 0.000000 0.000000 0.000000
														}
													}
												}
											}
										}
										JOINT LeftHandMiddle1
										{
											OFFSET 18.013008 0.000000 0.000000
											CHANNELS 3 Xrotation Yrotation Zrotation
											JOINT LeftHandMiddle2
											{
												OFFSET 4.946693 0.000000 0.000000
												CHANNELS 3 Xrotation Yrotation Zrotation
												JOINT LeftHandMiddle3
												{
													OFFSET 3.342232 0.000000 0.000000
													CHANNELS 3 Xrotation Yrotation Zrotation
													JOINT LeftHandMiddle4
													{
														OFFSET 4.461754 0.000000 0.000000
														CHANNELS 3 Xrotation Yrotation Zrotation
														End Site
														{
															OFFSET 0.000000 0.000000 0.000000
														}
													}
												}
											}
										}
										JOINT LeftHandRing1
										{
											OFFSET 15.849892 -0.102921 -4.126150
											CHANNELS 3 Xrotation Yrotation Zrotation
											JOINT LeftHandRing2
											{
												OFFSET 3.527054 0.000000 0.000000
												CHANNELS 3 Xrotation Yrotation Zrotation
												JOINT LeftHandRing3
												{
													OFFSET 2.961098 0.000000 0.000000
													CHANNELS 3 Xrotation Yrotation Zrotation
													JOINT LeftHandRing4
													{
														OFFSET 4.927200 0.000000 0.000000
														CHANNELS 3 Xrotation Yrotation Zrotation
														End Site
														{
															OFFSET 0.000000 0.000000 0.000000
														}
													}
												}
											}
										}
										JOINT LeftHandPinky1
										{
											OFFSET 12.791824 -0.832031 -6.799156
											CHANNELS 3 Xrotation Yrotation Zrotation
											JOINT LeftHandPinky2
											{
												OFFSET 3.327133 0.000000 0.000000
												CHANNELS 3 Xrotation Yrotation Zrotation
												JOINT LeftHandPinky3
												{
													OFFSET 3.014900 0.000000 0.000000
													CHANNELS 3 Xrotation Yrotation Zrotation
													JOINT LeftHandPinky4
													{
														OFFSET 5.847786 0.000000 0.000000
														CHANNELS 3 Xrotation Yrotation Zrotation
														End Site
														{
															OFFSET 0.000000 0.000000 0.000000
														}
													}
												}
											}
										}
									}
								}
							}
						}
					}
					JOINT RightShoulder
					{
						OFFSET -6.292450 5.785301 -0.669000
						CHANNELS 3 Xrotation Yrotation Zrotation
						JOINT RightShoulder_split
						{
							OFFSET -6.292450 5.785301 -0.669000
							CHANNELS 3 Xrotation Yrotation Zrotation
							JOINT RightArm
							{
								OFFSET -13.907140 -6.093903 1.965100
								CHANNELS 3 Xrotation Yrotation Zrotation
								JOINT RightForeArm
								{
									OFFSET -34.140198 0.000000 0.000000
									CHANNELS 3 Xrotation Yrotation Zrotation
									JOINT RightHand
									{
										OFFSET -40.960209 0.000000 0.000000
										CHANNELS 3 Xrotation Yrotation Zrotation
										JOINT RightHandThumb1
										{
											OFFSET -10.007050 -7.170456 9.573117
											CHANNELS 3 Xrotation Yrotation Zrotation
											JOINT RightHandThumb2
											{
												OFFSET -1.835007 -1.059448 1.059443
												CHANNELS 3 Xrotation Yrotation Zrotation
												JOINT RightHandThumb3
												{
													OFFSET -2.112267 -1.219513 1.219518
													CHANNELS 3 Xrotation Yrotation Zrotation
													JOINT RightHandThumb4
													{
														OFFSET -4.843834 -2.796585 2.796590
														CHANNELS 3 Xrotation Yrotation Zrotation
														End Site
														{
															OFFSET 0.000000 0.000000 0.000000
														}
													}
												}
											}
										}
										JOINT RightHandIndex1
										{
											OFFSET -18.389870 -0.922424 4.596786
											CHANNELS 3 Xrotation Yrotation Zrotation
											JOINT RightHandIndex2
											{
												OFFSET -4.711273 0.000000 0.000000
												CHANNELS 3 Xrotation Yrotation Zrotation
												JOINT RightHandIndex3
												{
													OFFSET -2.886131 0.000000 0.000000
													CHANNELS 3 Xrotation Yrotation Zrotation
													JOINT RightHandIndex4
													{
														OFFSET -6.145920 0.000000 0.000000
														CHANNELS 3 Xrotation Yrotation Zrotation
														End Site
														{
															OFFSET 0.000000 0.000000 0.000000
														}
													}
												}
											}
										}
										JOINT RightHandMiddle1
										{
											OFFSET -18.013008 0.000000 0.000000
											CHANNELS 3 Xrotation Yrotation Zrotation
											JOINT RightHandMiddle2
											{
												OFFSET -4.946693 0.000000 0.000000
												CHANNELS 3 Xrotation Yrotation Zrotation
												JOINT RightHandMiddle3
												{
													OFFSET -3.342232 0.000000 0.000000
													CHANNELS 3 Xrotation Yrotation Zrotation
													JOINT RightHandMiddle4
													{
														OFFSET -4.461754 0.000000 0.000000
														CHANNELS 3 Xrotation Yrotation Zrotation
														End Site
														{
															OFFSET 0.000000 0.000000 0.000000
														}
													}
												}
											}
										}
										JOINT RightHandRing1
										{
											OFFSET -15.849876 -0.102936 -4.126237
											CHANNELS 3 Xrotation Yrotation Zrotation
											JOINT RightHandRing2
											{
												OFFSET -3.527054 0.000000 0.000000
												CHANNELS 3 Xrotation Yrotation Zrotation
												JOINT RightHandRing3
												{
													OFFSET -2.961098 0.000000 0.000000
													CHANNELS 3 Xrotation Yrotation Zrotation
													JOINT RightHandRing4
													{
														OFFSET -4.927200 0.000000 0.000000
														CHANNELS 3 Xrotation Yrotation Zrotation
														End Site
														{
															OFFSET 0.000000 0.000000 0.000000
														}
													}
												}
											}
										}
										JOINT RightHandPinky1
										{
											OFFSET -12.791786 -0.832077 -6.799222
											CHANNELS 3 Xrotation Yrotation Zrotation
											JOINT RightHandPinky2
											{
												OFFSET -3.327133 0.000000 0.000000
												CHANNELS 3 Xrotation Yrotation Zrotation
												JOINT RightHandPinky3
												{
													OFFSET -3.014900 0.000000 0.000000
													CHANNELS 3 Xrotation Yrotation Zrotation
													JOINT RightHandPinky4
													{
														OFFSET -5.847786 0.000000 0.000000
														CHANNELS 3 Xrotation Yrotation Zrotation
														End Site
														{
															OFFSET 0.000000 0.000000 0.000000
														}
													}
												}
											}
										}
									}
								}
							}
						}
					}
				}
			}
		}
	}
	JOINT LeftUpLeg
	{
		OFFSET 13.026900 -6.336304 -1.092800
		CHANNELS 3 Xrotation Yrotation Zrotation
		JOINT LeftLeg
		{
			OFFSET 0.524474 -46.096886 9.782700
			CHANNELS 3 Xrotation Yrotation Zrotation
			JOINT LeftFoot
			{
				OFFSET -0.524474 -53.427422 -12.948200
				CHANNELS 3 Xrotation Yrotation Zrotation
				JOINT LeftToeBase
				{
					OFFSET 0.192200 -14.009700 16.364100
					CHANNELS 3 Xrotation Yrotation Zrotation
					JOINT LeftToe_End
					{
						OFFSET -1.784700 -0.561700 9.474800
						CHANNELS 3 Xrotation Yrotation Zrotation
						End Site
						{
							OFFSET 0.000000 0.000000 0.000000
						}
					}
				}
			}
		}
	}
	JOINT RightUpLeg
	{
		OFFSET -12.883000 -6.336304 -1.092800
		CHANNELS 3 Xrotation Yrotation Zrotation
		JOINT RightLeg
		{
			OFFSET -0.524587 -46.096825 9.782800
			CHANNELS 3 Xrotation Yrotation Zrotation
			JOINT RightFoot
			{
				OFFSET 0.524587 -53.427383 -12.948300
				CHANNELS 3 Xrotation Yrotation Zrotation
				JOINT RightToeBase
				{
					OFFSET -0.192200 -14.009700 16.364100
					CHANNELS 3 Xrotation Yrotation Zrotation
					JOINT RightToe_End
					{
						OFFSET 1.784700 -0.561700 9.474800
						CHANNELS 3 Xrotation Yrotation Zrotation
						End Site
						{
							OFFSET 0.000000 0.000000 0.000000
						}
					}
				}
			}
		}
	}
}
MOTION
Frames: 4
Frame Time: 0.016667
0.947216 56.645271 -3.607900 0.453435 -175.942258 -9.353071 3.973755 4.240090 -1.903786 8.138439 6.853470 -4.615298 0.000000 0.000000 0.000000 8.138441 6.853473 -4.615310 -3.924081 28.385132 6.948704 6.044263 35.632714 -22.310173 0.000001 -0.000000 -0.000000 0.991955 -15.521566 -11.873502 0.000000 0.000000 0.000000 2.947328 -1.004906 -32.103805 39.921947 -32.872591 -2.089475 12.741838 10.294080 2.732605 -10.171834 -9.655289 9.007729 2.321134 6.714505 2.170918 0.000007 0.000008 -0.000004 -0.000001 -0.000001 -0.000000 -0.823924 -6.584364 -6.418251 -0.126830 0.207667 -21.714391 0.000007 -0.000005 -0.000005 -0.000001 -0.000001 -0.000000 1.294486 -1.113037 -9.321272 -0.178460 -0.773454 -14.430115 0.000001 0.000003 0.000014 -0.000001 -0.000000 -0.000000 -0.565341 2.847731 -6.302101 -0.505482 -2.597478 -30.199494 -0.000001 0.000000 0.000004 -0.000002 -0.000002 -0.000002 -0.248815 5.894612 -1.054405 -0.699243 -5.770486 -39.699320 0.000004 0.000013 0.000013 0.000002 -0.000003 0.000001 3.297403 -18.314893 12.160855 0.000000 0.000000 0.000000 12.768036 -13.236288 60.187053 30.213096 39.380166 -4.024280 19.052422 -1.510669 11.776088 -7.035183 1.739461 -10.279214 -0.642362 -0.093868 -1.289337 -0.000006 -0.000002 0.000001 -0.000001 0.000000 -0.000001 -3.340360 2.507662 5.478429 0.120537 -1.119645 16.859803 0.000007 -0.000003 -0.000006 0.000000 -0.000000 -0.000000 -0.189045 -1.324954 0.979411 -0.357893 1.142267 22.116009 -0.000002 -0.000002 -0.000001 0.000003 -0.000000 0.000001 1.946043 0.242695 1.015184 -0.619901 3.110102 28.344742 -0.000001 -0.000006 0.000006 0.000003 -0.000001 0.000003 4.839322 -1.854586 -3.962233 -1.320420 7.677258 37.620204 -0.000010 0.000013 0.000005 -0.000002 -0.000001 0.000003 -89.030580 -22.690035 13.794934 112.910383 4.769245 3.030546 -18.070015 4.099278 -17.548378 -1.265169 1.138457 1.463781 -0.000000 0.000001 -0.000000 -62.600241 17.450754 -26.756170 103.048457 3.075703 -0.388988 -19.189965 -8.318101 31.819492 -9.248168 -3.094949 -0.191131 -0.000000 -0.000001 -0.000000 
0.943314 56.647926 -3.611446 0.423253 -175.929158 -9.368282 3.962217 4.241318 -1.902347 8.115209 6.854068 -4.611593 0.000000 0.000000 0.000000 8.115218 6.854062 -4.611581 -3.893997 28.384576 6.949298 6.058527 35.625946 -22.329903 0.000000 -0.000000 -0.000000 0.983013 -15.541322 -11.895335 0.000000 0.000000 0.000000 2.965897 -0.975600 -32.060905 39.955572 -32.910590 -2.104607 12.745296 10.287323 2.740130 -10.172290 -9.653902 9.008309 2.321134 6.714507 2.170918 0.000006 0.000008 -0.000003 -0.000001 -0.000001 0.000001 -0.828618 -6.612125 -6.414578 -0.126826 0.207666 -21.714391 0.000000 -0.000006 -0.000003 -0.000002 -0.000001 0.000001 1.294498 -1.113000 -9.320922 -0.178458 -0.773453 -14.430115 0.000001 0.000004 0.000012 -0.000001 0.000000 0.000001 -0.564496 2.847566 -6.300951 -0.505484 -2.597477 -30.199494 -0.000003 -0.000002 0.000006 -0.000002 -0.000001 0.000001 -0.248485 5.894458 -1.053951 -0.699244 -5.770486 -39.699320 0.000001 0.000016 0.000010 -0.000003 -0.000000 0.000001 3.299772 -18.344998 12.110441 0.000000 0.000000 0.000000 12.768932 -13.198101 60.241381 30.218249 39.297603 -4.016841 19.086207 -1.501103 11.733815 -7.041334 1.762639 -10.274688 -0.642370 -0.093868 -1.289329 -0.000007 -0.000004 -0.000001 -0.000001 -0.000000 -0.000000 -3.280156 2.555631 5.448248 0.120534 -1.119643 16.859798 0.000003 -0.000006 -0.000003 -0.000002 -0.000000 -0.000001 -0.085944 -1.307456 0.995304 -0.357896 1.142266 22.116014 -0.000000 -0.000005 0.000000 -0.000002 0.000001 0.000000 1.946327 0.242911 1.016098 -0.619895 3.110107 28.344740 0.000005 -0.000002 0.000002 0.000001 -0.000000 -0.000001 4.839134 -1.854393 -3.961746 -1.320423 7.677258 37.620200 -0.000008 0.000011 0.000008 -0.000002 -0.000001 0.000002 -89.071445 -22.696005 13.772780 112.910342 4.775294 3.031691 -18.067288 4.096221 -17.542747 -1.264025 1.137801 1.462501 0.000000 0.000000 -0.000000 -62.603581 17.441528 -26.761366 103.040008 3.067874 -0.384085 -19.196308 -8.320524 31.819546 -9.247645 -3.096595 -0.190636 0.000001 -0.000001 -0.000001 
0.942942 56.648689 -3.616439 0.398346 -175.933502 -9.378366 3.951372 4.241081 -1.904776 8.093580 6.853828 -4.615533 0.000000 0.000000 0.000000 8.093580 6.853822 -4.615525 -3.941508 28.376349 6.975602 6.129564 35.633274 -22.332407 0.000001 0.000000 -0.000000 0.984356 -15.557356 -11.893249 0.000000 0.000000 0.000000 2.993959 -0.936735 -32.027758 39.996946 -32.956015 -2.104885 12.752494 10.324087 2.750434 -10.172769 -9.652543 9.008921 2.321132 6.714506 2.170920 0.000007 0.000009 -0.000004 -0.000003 -0.000000 0.000001 -0.833438 -6.640652 -6.410814 -0.126827 0.207666 -21.714392 0.000005 -0.000003 -0.000006 0.000004 -0.000001 -0.000002 1.294511 -1.112970 -9.320513 -0.178459 -0.773454 -14.430115 -0.000001 0.000004 0.000011 0.000002 -0.000001 0.000001 -0.563591 2.847406 -6.299817 -0.505484 -2.597478 -30.199494 -0.000006 -0.000000 0.000005 0.000002 0.000001 0.000001 -0.248205 5.893925 -1.053436 -0.699247 -5.770485 -39.699317 0.000004 0.000013 0.000011 0.000001 0.000001 -0.000000 3.302526 -18.350051 12.097405 0.000000 0.000000 0.000000 12.769788 -13.185360 60.268428 30.241342 39.257059 -4.029734 19.125795 -1.494297 11.725366 -7.048391 1.789083 -10.269483 -0.642365 -0.093868 -1.289330 -0.000003 -0.000003 0.000002 0.000002 -0.000000 -0.000001 -3.217546 2.602795 5.419793 0.120535 -1.119644 16.859801 0.000006 -0.000005 -0.000006 -0.000003 0.000000 -0.000000 0.019112 -1.289079 1.011202 -0.357897 1.142266 22.116013 0.000003 -0.000002 -0.000002 -0.000003 -0.000001 -0.000001 1.946588 0.243102 1.016877 -0.619896 3.110105 28.344742 0.000004 -0.000004 0.000003 -0.000003 -0.000000 0.000001 4.838918 -1.854200 -3.961320 -1.320420 7.677259 37.620197 -0.000012 0.000014 0.000006 -0.000004 -0.000001 -0.000001 -89.097120 -22.695749 13.786799 112.912405 4.765511 3.032093 -18.073095 4.091691 -17.530685 -1.262912 1.137223 1.461104 -0.000000 0.000001 -0.000000 -62.619734 17.439886 -26.745991 103.040637 3.057481 -0.379264 -19.208958 -8.324086 31.818166 -9.247123 -3.098247 -0.190059 -0.000000 -0.000001 -0.000000 
0.941191 56.644562 -3.622338 0.372952 -175.926221 -9.393897 3.942216 4.241771 -1.903981 8.075130 6.853913 -4.612894 0.000000 0.000000 0.000000 8.075139 6.853910 -4.612892 -3.925082 28.376649 6.958242 6.143550 35.639579 -22.329758 0.000001 0.000000 0.000000 0.985471 -15.558940 -11.899341 0.000000 0.000000 0.000000 3.003088 -0.913851 -31.997059 40.016545 -32.998232 -2.121994 12.751326 10.346635 2.756606 -10.173248 -9.651237 9.009524 2.321132 6.714504 2.170918 0.000015 0.000008 -0.000006 0.000004 -0.000000 0.000000 -0.838440 -6.669840 -6.406881 -0.126830 0.207666 -21.714391 0.000006 -0.000003 -0.000003 0.000002 0.000001 -0.000001 1.294504 -1.112927 -9.320122 -0.178462 -0.773454 -14.430115 0.000004 0.000002 0.000014 0.000001 0.000000 0.000001 -0.562658 2.847232 -6.298609 -0.505482 -2.597478 -30.199494 -0.000002 -0.000000 0.000006 -0.000002 -0.000001 -0.000000 -0.247937 5.893325 -1.052758 -0.699244 -5.770486 -39.699320 0.000001 0.000014 0.000014 0.000001 -0.000003 0.000004 3.306596 -18.371390 12.069621 0.000000 0.000000 0.000000 12.769779 -13.150465 60.289212 30.289908 39.220282 -4.043891 19.162132 -1.502732 11.706695 -7.056321 1.818836 -10.263614 -0.642366 -0.093868 -1.289333 -0.000007 -0.000000 0.000002 -0.000002 0.000001 -0.000001 -3.152910 2.648911 5.393174 0.120536 -1.119644 16.859803 0.000006 -0.000003 -0.000005 -0.000003 -0.000001 0.000000 0.125423 -1.270062 1.026997 -0.357892 1.142264 22.116007 0.000002 -0.000003 0.000002 0.000000 0.000001 -0.000001 1.946799 0.243263 1.017464 -0.619896 3.110106 28.344745 0.000003 -0.000002 0.000004 0.000000 -0.000001 0.000000 4.838696 -1.853961 -3.961041 -1.320420 7.677259 37.620197 -0.000011 0.000016 0.000002 -0.000001 -0.000000 -0.000002 -89.141434 -22.694176 13.797272 112.920731 4.747113 3.032843 -18.075800 4.080488 -17.504641 -1.261688 1.136730 1.459765 -0.000000 -0.000000 -0.000000 -62.634781 17.420811 -26.753166 103.043369 3.055344 -0.377117 -19.222261 -8.324748 31.810465 -9.246662 -3.090851 -0.187945 0.000000 0.000000 -0.000000 
